<svg width="167" height="167" viewBox="0 0 167 167" fill="none" xmlns="http://www.w3.org/2000/svg">
<path d="M122.85 166.28H44.94C20.63 166.28 0.919983 146.57 0.919983 122.26V44.43C0.919983 20.12 20.63 0.409973 44.94 0.409973H122.8C147.1 0.409973 166.8 20.1 166.82 44.4L166.87 122.23C166.89 146.55 147.17 166.27 122.85 166.27V166.28Z" fill="#98D6E0"/>
<path d="M57.98 51.19C58.62 51.06 59.4 50.98 59.81 51.48C60.01 51.73 60.07 52.07 60.08 52.39C60.2 54.72 58.69 56.87 56.81 58.24C53.42 60.71 48.99 61.13 44.8 61.28C40.08 61.44 35.07 61.28 31.09 58.76C29.46 57.73 27.99 56.17 27.75 54.26C27.44 51.8 29.53 49.81 31.91 50.49C34.14 51.13 35.95 52.58 38.29 53.12C44.9 54.64 51.52 52.55 57.97 51.19H57.98Z" fill="#333333"/>
<path d="M110.15 51.19C109.51 51.06 108.73 50.98 108.32 51.48C108.12 51.73 108.06 52.07 108.05 52.39C107.93 54.72 109.44 56.87 111.32 58.24C114.71 60.71 119.14 61.13 123.33 61.28C128.05 61.44 133.06 61.28 137.04 58.76C138.67 57.73 140.14 56.17 140.38 54.26C140.69 51.8 138.6 49.81 136.22 50.49C133.99 51.13 132.18 52.58 129.84 53.12C123.23 54.64 116.61 52.55 110.16 51.19H110.15Z" fill="#333333"/>
<path d="M106.85 86.49H61.33C52.8911 86.49 46.05 93.3311 46.05 101.77V116.86C46.05 125.299 52.8911 132.14 61.33 132.14H106.85C115.289 132.14 122.13 125.299 122.13 116.86V101.77C122.13 93.3311 115.289 86.49 106.85 86.49Z" fill="white"/>
<path d="M0.919983 65.62C1.09998 66.05 4.90998 68.68 5.28998 68.94L52.76 101.5L52.36 95.55C50.94 95.19 8.38998 65.49 0.919983 60.27V65.62Z" fill="white"/>
<path d="M0.919983 84.2L52.76 119.55L52.36 113.6C50.94 113.24 8.38998 83.88 0.919983 78.66V84.2Z" fill="white"/>
<path d="M166.86 68.94L115.36 101.5L115.76 95.55C117.18 95.19 159.38 69.98 166.86 64.76V68.94Z" fill="white"/>
<path d="M166.86 86.99L115.36 119.55L115.76 113.6C117.18 113.24 159.38 88.03 166.86 82.81V86.99Z" fill="white"/>
</svg>
