<svg width="166" height="166" viewBox="0 0 166 166" fill="none" xmlns="http://www.w3.org/2000/svg">
<path d="M122.39 0H43.56C19.5246 0 0.0400085 19.4846 0.0400085 43.52V122.35C0.0400085 146.385 19.5246 165.87 43.56 165.87H122.39C146.425 165.87 165.91 146.385 165.91 122.35V43.52C165.91 19.4846 146.425 0 122.39 0Z" fill="#F8D45A"/>
<path d="M47 77.82C50.9709 77.82 54.19 72.3892 54.19 65.69C54.19 58.9908 50.9709 53.56 47 53.56C43.0291 53.56 39.81 58.9908 39.81 65.69C39.81 72.3892 43.0291 77.82 47 77.82Z" fill="#333333"/>
<path d="M118.95 77.82C122.921 77.82 126.14 72.3892 126.14 65.69C126.14 58.9908 122.921 53.56 118.95 53.56C114.979 53.56 111.76 58.9908 111.76 65.69C111.76 72.3892 114.979 77.82 118.95 77.82Z" fill="#333333"/>
<path d="M107.67 93.2C114.18 93.2 118.41 100.05 115.51 105.88C110.04 116.88 97.68 124.55 83.31 124.55C68.94 124.55 56.58 116.88 51.11 105.88C48.21 100.05 52.43 93.2 58.95 93.2H107.68H107.67Z" fill="#333333"/>
</svg>
