<svg width="167" height="167" viewBox="0 0 167 167" fill="none" xmlns="http://www.w3.org/2000/svg">
<path d="M122.24 0.409973H44.41C20.0984 0.409973 0.390015 20.1184 0.390015 44.43V122.26C0.390015 146.572 20.0984 166.28 44.41 166.28H122.24C146.552 166.28 166.26 146.572 166.26 122.26V44.43C166.26 20.1184 146.552 0.409973 122.24 0.409973Z" fill="#EFCFC5"/>
<path d="M33.97 78.82C33.91 78.68 33.87 78.54 33.84 78.39C32.25 69.46 49.29 67.18 54.76 68.9C57.57 69.78 60.4 71.32 62.64 73.23C63.51 73.97 69.07 80.93 65.07 81.02C64.48 81.03 63.94 80.7 63.46 80.35C59.8 77.77 57.86 73.94 53.25 72.84C48.19 71.63 42.65 73.27 39.11 77.1C37.99 78.31 35.18 81.75 33.97 78.81V78.82Z" fill="#333333"/>
<path d="M133.01 78.82C133.07 78.68 133.11 78.54 133.14 78.39C134.73 69.46 117.69 67.18 112.22 68.9C109.41 69.78 106.58 71.32 104.34 73.23C103.47 73.97 97.91 80.93 101.91 81.02C102.5 81.03 103.04 80.7 103.52 80.35C107.18 77.77 109.12 73.94 113.73 72.84C118.79 71.63 124.33 73.27 127.87 77.1C128.99 78.31 131.8 81.75 133.01 78.81V78.82Z" fill="#333333"/>
<path d="M24.42 108.14C30.1141 108.14 34.73 103.524 34.73 97.83C34.73 92.136 30.1141 87.52 24.42 87.52C18.726 87.52 14.11 92.136 14.11 97.83C14.11 103.524 18.726 108.14 24.42 108.14Z" fill="#F38DB3"/>
<path d="M142.23 108.14C147.924 108.14 152.54 103.524 152.54 97.83C152.54 92.136 147.924 87.52 142.23 87.52C136.536 87.52 131.92 92.136 131.92 97.83C131.92 103.524 136.536 108.14 142.23 108.14Z" fill="#F38DB3"/>
<path d="M77.12 112.99C75.82 113.44 75.2 114.93 75.79 116.18L77.71 120.21C78.4 121.65 79.11 123.12 80.29 124.19C81.47 125.26 83.25 125.83 84.69 125.15C85.91 124.58 86.63 123.24 86.82 121.91C86.87 121.53 86.89 121.15 86.88 120.76C86.86 119.7 87.94 119.02 88.87 119.52C89.83 120.04 90.87 120.37 92.04 120.29C92.94 120.23 93.82 119.84 94.38 119.13C95.8 117.34 94.6 115.18 93.21 113.72C91.74 112.19 89.97 110.94 88.04 110.07C87.33 109.75 86.53 109.71 85.79 109.97L77.1 112.99H77.12Z" fill="#F38DB3"/>
</svg>
