<svg width="167" height="167" viewBox="0 0 167 167" fill="none" xmlns="http://www.w3.org/2000/svg">
<path d="M122.7 0.179993H43.87C19.8346 0.179993 0.350006 19.6646 0.350006 43.7V122.53C0.350006 146.565 19.8346 166.05 43.87 166.05H122.7C146.735 166.05 166.22 146.565 166.22 122.53V43.7C166.22 19.6646 146.735 0.179993 122.7 0.179993Z" fill="#EFCFC5"/>
<path d="M55.89 105.21C60.9048 105.21 64.97 98.36 64.97 89.91C64.97 81.46 60.9048 74.61 55.89 74.61C50.8753 74.61 46.81 81.46 46.81 89.91C46.81 98.36 50.8753 105.21 55.89 105.21Z" fill="white"/>
<path d="M115.89 105.21C120.905 105.21 124.97 98.36 124.97 89.91C124.97 81.46 120.905 74.61 115.89 74.61C110.875 74.61 106.81 81.46 106.81 89.91C106.81 98.36 110.875 105.21 115.89 105.21Z" fill="white"/>
<path d="M55.89 101.14C59.5682 101.14 62.55 96.1122 62.55 89.91C62.55 83.7078 59.5682 78.68 55.89 78.68C52.2118 78.68 49.23 83.7078 49.23 89.91C49.23 96.1122 52.2118 101.14 55.89 101.14Z" fill="#333333"/>
<path d="M115.96 101.14C119.638 101.14 122.62 96.1122 122.62 89.91C122.62 83.7078 119.638 78.68 115.96 78.68C112.282 78.68 109.3 83.7078 109.3 89.91C109.3 96.1122 112.282 101.14 115.96 101.14Z" fill="#333333"/>
<path d="M144.73 56.24C144.73 63.65 141.76 65.76 137.68 65.76C133.6 65.76 129.94 63.65 129.94 56.24C129.94 48.83 132.98 33.5 137.06 33.5C141.14 33.5 144.73 48.83 144.73 56.24Z" fill="white"/>
<path d="M97.88 40.28C97.88 46.05 95.57 47.68 92.39 47.68C89.21 47.68 86.37 46.04 86.37 40.28C86.37 34.52 88.73 22.59 91.91 22.59C95.09 22.59 97.88 34.51 97.88 40.28Z" fill="white"/>
<path d="M44.03 56.6C44.03 62.35 41.73 63.99 38.56 63.99C35.39 63.99 32.55 62.36 32.55 56.6C32.55 50.84 34.91 38.95 38.08 38.95C41.25 38.95 44.03 50.84 44.03 56.6Z" fill="white"/>
<path d="M69.36 48.42C69.36 52.38 67.78 53.5 65.6 53.5C63.42 53.5 61.47 52.38 61.47 48.42C61.47 44.46 63.09 36.29 65.27 36.29C67.45 36.29 69.36 44.47 69.36 48.42Z" fill="white"/>
<path d="M113.33 55.63C113.33 59.59 111.75 60.71 109.57 60.71C107.39 60.71 105.44 59.59 105.44 55.63C105.44 51.67 107.06 43.5 109.24 43.5C111.42 43.5 113.33 51.68 113.33 55.63Z" fill="white"/>
<path d="M15.68 126.9C15.31 126.9 14.93 126.82 14.58 126.64C13.36 126.03 12.87 124.55 13.48 123.33L20.06 110.18C20.67 108.96 22.15 108.47 23.37 109.08C24.59 109.69 25.08 111.17 24.47 112.39L17.89 125.54C17.46 126.4 16.59 126.9 15.68 126.9Z" fill="#EB294C"/>
<path d="M26.37 126.9C26 126.9 25.62 126.82 25.27 126.64C24.05 126.03 23.56 124.55 24.17 123.33L30.74 110.18C31.35 108.96 32.83 108.47 34.05 109.08C35.27 109.69 35.76 111.17 35.15 112.39L28.58 125.54C28.15 126.4 27.28 126.9 26.37 126.9Z" fill="#EB294C"/>
<path d="M37.05 126.9C36.68 126.9 36.3 126.82 35.95 126.64C34.73 126.03 34.24 124.55 34.85 123.33L41.43 110.18C42.04 108.96 43.52 108.47 44.74 109.08C45.96 109.69 46.45 111.17 45.84 112.39L39.26 125.54C38.83 126.4 37.96 126.9 37.05 126.9Z" fill="#EB294C"/>
<path d="M122.94 126.9C122.57 126.9 122.19 126.82 121.84 126.64C120.62 126.03 120.13 124.55 120.74 123.33L127.32 110.18C127.93 108.96 129.41 108.47 130.63 109.08C131.85 109.69 132.34 111.17 131.73 112.39L125.15 125.54C124.72 126.4 123.85 126.9 122.94 126.9Z" fill="#EB294C"/>
<path d="M133.63 126.9C133.26 126.9 132.88 126.82 132.53 126.64C131.31 126.03 130.82 124.55 131.43 123.33L138.01 110.18C138.62 108.96 140.1 108.47 141.32 109.08C142.54 109.69 143.03 111.17 142.42 112.39L135.84 125.54C135.41 126.4 134.54 126.9 133.63 126.9Z" fill="#EB294C"/>
<path d="M144.31 126.9C143.94 126.9 143.56 126.82 143.21 126.64C141.99 126.03 141.5 124.55 142.11 123.33L148.69 110.18C149.3 108.96 150.78 108.47 152 109.08C153.22 109.69 153.71 111.17 153.1 112.39L146.52 125.54C146.09 126.4 145.22 126.9 144.31 126.9Z" fill="#EB294C"/>
</svg>
