<svg width="167" height="167" viewBox="0 0 167 167" fill="none" xmlns="http://www.w3.org/2000/svg">
<path d="M123.09 0.350006H44.26C20.2246 0.350006 0.73999 19.8346 0.73999 43.87V122.7C0.73999 146.735 20.2246 166.22 44.26 166.22H123.09C147.125 166.22 166.61 146.735 166.61 122.7V43.87C166.61 19.8346 147.125 0.350006 123.09 0.350006Z" fill="#98D6E0"/>
<path d="M46.39 63.42C46.25 58.74 49.94 54.83 54.63 54.69C59.31 54.55 63.22 58.24 63.36 62.93C63.5 67.61 59.81 71.52 55.12 71.66C50.44 71.8 46.53 68.11 46.39 63.42Z" fill="#333333"/>
<path d="M105.77 61.71C105.63 57.03 109.32 53.12 114.01 52.98C118.7 52.84 122.6 56.53 122.74 61.22C122.88 65.91 119.19 69.81 114.5 69.95C109.82 70.09 105.91 66.4 105.77 61.71Z" fill="#333333"/>
<path d="M95.41 87.91C96.59 87.05 97.79 86.33 99 85.82C104.7 83.45 107.67 89.75 110.17 92.69C112.01 94.85 113.79 97.58 112.7 100.77C110.64 106.81 102.43 111.99 97.62 116.2C92.74 120.47 87.92 124.79 83.15 129.17C79.61 132.42 75.66 137.06 70.83 137.06C68.77 137.06 67.4 135.62 66.22 134.24C64.17 131.83 62.19 129.35 60.27 126.82C58.39 124.34 58.87 121.49 61.35 118.34C62.97 116.28 65.08 114.59 67.15 112.91C73.06 108.11 78.84 103.17 84.5 98.08C87.75 95.15 91.46 90.77 95.4 87.9L95.41 87.91Z" fill="#333333"/>
<path d="M76.8499 87.92C75.6699 87.06 74.47 86.34 73.26 85.83C67.56 83.45 64.59 89.76 62.09 92.69C60.25 94.85 58.47 97.58 59.56 100.77C61.62 106.81 69.83 111.99 74.64 116.2C79.51 120.47 84.3399 124.79 89.0999 129.18C92.6399 132.43 96.5899 137.07 101.41 137.07C103.47 137.07 104.84 135.63 106.02 134.25C108.07 131.84 110.06 129.36 111.97 126.83C113.85 124.35 113.37 121.5 110.89 118.35C109.27 116.29 107.16 114.6 105.1 112.92C99.1999 108.12 93.41 103.17 87.76 98.09C84.51 95.16 80.8 90.78 76.86 87.91L76.8499 87.92Z" fill="#333333"/>
<path d="M64.17 50.42C64.78 50.71 65.4901 50.48 65.84 49.89C66.76 48.3 67.37 46.52 67.61 44.68C67.86 42.72 44.45 36.4 42.05 35.79C36.28 34.33 29.96 32.71 23.76 31.96C22.18 31.77 21.68 34.11 23.2 34.62C28.89 36.51 34.79 38.03 40.31 40.15C48.39 43.25 56.36 46.68 64.18 50.43L64.17 50.42Z" fill="#333333"/>
<path d="M104.23 49.26C103.64 49.58 102.91 49.4 102.53 48.83C101.52 47.3 100.81 45.55 100.46 43.73C100.09 41.79 123.1 34.12 125.47 33.38C131.14 31.59 137.36 29.61 143.51 28.5C145.08 28.22 145.71 30.53 144.22 31.12C138.65 33.33 132.84 35.2 127.46 37.63C119.57 41.19 111.82 45.07 104.22 49.27L104.23 49.26Z" fill="#333333"/>
</svg>
