<svg width="167" height="167" viewBox="0 0 167 167" fill="none" xmlns="http://www.w3.org/2000/svg">
<path d="M122.53 0.179993H43.7C19.6646 0.179993 0.179993 19.6646 0.179993 43.7V122.53C0.179993 146.565 19.6646 166.05 43.7 166.05H122.53C146.565 166.05 166.05 146.565 166.05 122.53V43.7C166.05 19.6646 146.565 0.179993 122.53 0.179993Z" fill="#FDC013"/>
<path d="M47.13 78.53C51.1009 78.53 54.32 73.0992 54.32 66.4C54.32 59.7008 51.1009 54.27 47.13 54.27C43.1591 54.27 39.94 59.7008 39.94 66.4C39.94 73.0992 43.1591 78.53 47.13 78.53Z" fill="#333333"/>
<path d="M119.08 78.53C123.051 78.53 126.27 73.0992 126.27 66.4C126.27 59.7008 123.051 54.27 119.08 54.27C115.109 54.27 111.89 59.7008 111.89 66.4C111.89 73.0992 115.109 78.53 119.08 78.53Z" fill="#333333"/>
<path d="M37.01 109.55C38.06 115.2 43.01 119.49 48.96 119.49H50.47V109.55H37.01Z" fill="white"/>
<path d="M118.65 119.4C123.97 118.79 128.25 114.75 129.21 109.54H118.65V119.4Z" fill="white"/>
<path d="M129.24 105.11C128.36 99.8 124.04 95.65 118.65 95.04V105.11H129.24Z" fill="white"/>
<path d="M114.21 94.95H102.71V105.11H114.21V94.95Z" fill="white"/>
<path d="M66.41 94.95H54.91V105.11H66.41V94.95Z" fill="white"/>
<path d="M82.34 94.95H70.84V105.11H82.34V94.95Z" fill="white"/>
<path d="M98.28 94.95H86.78V105.11H98.28V94.95Z" fill="white"/>
<path d="M50.47 94.95H48.96C42.94 94.95 37.94 99.35 36.98 105.11H50.47V94.95Z" fill="white"/>
<path d="M98.28 109.55H86.78V119.49H98.28V109.55Z" fill="white"/>
<path d="M82.34 109.55H70.84V119.49H82.34V109.55Z" fill="white"/>
<path d="M66.41 109.55H54.91V119.49H66.41V109.55Z" fill="white"/>
<path d="M114.21 109.55H102.71V119.49H114.21V109.55Z" fill="white"/>
<path d="M117.26 90.51H48.96C39.81 90.51 32.36 97.96 32.36 107.11V107.33C32.36 106.1 33.35 105.11 34.58 105.11H34.74C35.72 98.12 41.7 92.73 48.96 92.73H50.7C51.06 91.99 51.81 91.48 52.69 91.48C53.57 91.48 54.32 91.99 54.68 92.73H66.64C67 91.99 67.75 91.48 68.63 91.48C69.51 91.48 70.26 91.99 70.62 92.73H82.58C82.94 91.99 83.69 91.48 84.57 91.48C85.45 91.48 86.2 91.99 86.56 92.73H98.52C98.88 91.99 99.63 91.48 100.51 91.48C101.39 91.48 102.14 91.99 102.5 92.73H114.46C114.82 91.99 115.57 91.48 116.45 91.48C117.33 91.48 118.12 92.02 118.47 92.79C125.22 93.34 130.63 98.55 131.52 105.19C132.46 105.45 133.16 106.3 133.16 107.32C133.16 108.34 132.45 109.22 131.49 109.46C130.52 115.94 125.24 121 118.66 121.63C118.57 122.77 117.63 123.68 116.46 123.68C115.29 123.68 114.39 122.81 114.27 121.7H102.72C102.6 122.81 101.67 123.68 100.53 123.68C99.39 123.68 98.46 122.81 98.34 121.7H86.79C86.67 122.81 85.74 123.68 84.6 123.68C83.46 123.68 82.53 122.81 82.41 121.7H70.86C70.74 122.81 69.81 123.68 68.67 123.68C67.53 123.68 66.6 122.81 66.48 121.7H54.93C54.81 122.81 53.88 123.68 52.74 123.68C51.6 123.68 50.67 122.81 50.55 121.7H49.01C41.83 121.7 35.89 116.43 34.82 109.54H34.63C33.4 109.54 32.41 108.55 32.41 107.32C32.41 116.47 39.86 123.92 49.01 123.92H117.31C126.46 123.92 133.91 116.47 133.91 107.32V107.1C133.91 97.95 126.46 90.5 117.31 90.5L117.26 90.51Z" fill="#333333"/>
<path d="M98.27 119.49H86.77V121.47C86.77 121.55 86.75 121.63 86.75 121.71H98.3C98.3 121.63 98.28 121.55 98.28 121.47V119.49H98.27Z" fill="#333333"/>
<path d="M50.47 119.49H48.96C43.01 119.49 38.06 115.2 37.01 109.55H34.77C35.84 116.43 41.77 121.71 48.96 121.71H50.5C50.5 121.63 50.48 121.55 50.48 121.47V119.49H50.47Z" fill="#333333"/>
<path d="M102.71 94.95H114.21V93.7C114.21 93.35 114.3 93.03 114.44 92.73H102.48C102.62 93.02 102.71 93.35 102.71 93.7V94.95Z" fill="#333333"/>
<path d="M82.34 119.49H70.84V121.47C70.84 121.55 70.82 121.63 70.82 121.71H82.37C82.37 121.63 82.35 121.55 82.35 121.47V119.49H82.34Z" fill="#333333"/>
<path d="M48.96 94.95H50.47V93.7C50.47 93.35 50.56 93.03 50.7 92.73H48.96C41.7 92.73 35.71 98.12 34.74 105.11H36.98C37.94 99.36 42.94 94.95 48.96 94.95Z" fill="#333333"/>
<path d="M114.21 119.49H102.71V121.47C102.71 121.55 102.69 121.63 102.69 121.71H114.24C114.24 121.63 114.22 121.55 114.22 121.47V119.49H114.21Z" fill="#333333"/>
<path d="M66.4 119.49H54.9V121.47C54.9 121.55 54.88 121.63 54.88 121.71H66.43C66.43 121.63 66.41 121.55 66.41 121.47V119.49H66.4Z" fill="#333333"/>
<path d="M86.78 94.95H98.28V93.7C98.28 93.35 98.37 93.03 98.51 92.73H86.55C86.69 93.02 86.78 93.35 86.78 93.7V94.95Z" fill="#333333"/>
<path d="M70.84 94.95H82.34V93.7C82.34 93.35 82.43 93.03 82.57 92.73H70.61C70.75 93.02 70.84 93.35 70.84 93.7V94.95Z" fill="#333333"/>
<path d="M118.65 95.04C124.04 95.66 128.36 99.81 129.24 105.11H130.91C131.11 105.11 131.31 105.15 131.49 105.2C130.6 98.55 125.19 93.35 118.44 92.8C118.56 93.08 118.64 93.38 118.64 93.71V95.05L118.65 95.04Z" fill="#333333"/>
<path d="M54.91 94.95H66.41V93.7C66.41 93.35 66.5 93.03 66.64 92.73H54.68C54.82 93.02 54.91 93.35 54.91 93.7V94.95Z" fill="#333333"/>
<path d="M129.21 109.55C128.25 114.75 123.97 118.8 118.65 119.41V121.47C118.65 121.53 118.64 121.58 118.63 121.64C125.22 121.02 130.49 115.95 131.46 109.47C131.28 109.51 131.1 109.55 130.91 109.55H129.2H129.21Z" fill="#333333"/>
<path d="M82.34 107.33H70.84V109.55H82.34V107.33Z" fill="#333333"/>
<path d="M114.21 105.11H102.71V107.33H114.21V105.11Z" fill="#333333"/>
<path d="M98.28 105.11H86.78V107.33H98.28V105.11Z" fill="#333333"/>
<path d="M98.28 107.33H86.78V109.55H98.28V107.33Z" fill="#333333"/>
<path d="M118.65 107.33H129.42V107.11C129.42 106.43 129.35 105.76 129.24 105.11H118.65V107.33Z" fill="#333333"/>
<path d="M82.34 105.11H70.84V107.33H82.34V105.11Z" fill="#333333"/>
<path d="M118.65 107.74H129.21C129.34 106.66 129.42 105.55 129.42 104.42H118.65V107.74Z" fill="#333333"/>
<path d="M114.21 107.33H102.71V109.55H114.21V107.33Z" fill="#333333"/>
<path d="M66.41 105.11H54.91V107.33H66.41V105.11Z" fill="#333333"/>
<path d="M50.47 105.11H36.98C36.87 105.76 36.8 106.43 36.8 107.11V107.33H50.47V105.11Z" fill="#333333"/>
<path d="M66.41 107.33H54.91V109.55H66.41V107.33Z" fill="#333333"/>
<path d="M50.47 109.55V107.33H36.8C36.8 108.09 36.88 108.83 37.01 109.55H50.47Z" fill="#333333"/>
<path d="M131.64 107.33C131.64 108.06 131.57 108.77 131.46 109.47C132.42 109.23 133.13 108.36 133.13 107.33C133.13 106.3 132.43 105.46 131.49 105.2C131.57 105.83 131.63 106.46 131.63 107.11V107.33H131.64Z" fill="#333333"/>
<path d="M34.58 109.55H34.77C34.66 108.83 34.58 108.09 34.58 107.33V107.11C34.58 106.43 34.64 105.76 34.74 105.11H34.58C33.35 105.11 32.36 106.1 32.36 107.33C32.36 108.56 33.35 109.55 34.58 109.55Z" fill="#333333"/>
<path d="M129.24 105.11C129.35 105.76 129.42 106.43 129.42 107.11V107.33C129.42 108.09 129.34 108.83 129.21 109.55H130.92C131.11 109.55 131.29 109.52 131.47 109.47C131.57 108.77 131.65 108.06 131.65 107.33V107.11C131.65 106.46 131.59 105.82 131.51 105.2C131.32 105.15 131.13 105.11 130.93 105.11H129.26H129.24Z" fill="#333333"/>
<path d="M34.58 107.33H36.8V107.11C36.8 106.43 36.87 105.76 36.98 105.11H34.74C34.65 105.77 34.58 106.43 34.58 107.11V107.33Z" fill="#333333"/>
<path d="M36.8 107.33H34.58C34.58 108.09 34.66 108.82 34.77 109.55H37.01C36.88 108.83 36.8 108.09 36.8 107.33Z" fill="#333333"/>
<path d="M52.69 94.95H50.47V105.11H52.69V94.95Z" fill="#333333"/>
<path d="M52.69 109.55H50.47V119.49H52.69V109.55Z" fill="#333333"/>
<path d="M54.91 94.95H52.69V105.11H54.91V94.95Z" fill="#333333"/>
<path d="M54.91 109.55H52.69V119.49H54.91V109.55Z" fill="#333333"/>
<path d="M52.69 123.68C53.83 123.68 54.76 122.81 54.88 121.7H50.49C50.61 122.81 51.54 123.68 52.68 123.68H52.69Z" fill="#333333"/>
<path d="M52.69 91.48C51.81 91.48 51.06 91.99 50.7 92.73H54.68C54.32 91.99 53.57 91.48 52.69 91.48Z" fill="#333333"/>
<path d="M54.91 119.49H52.69H50.47V121.47C50.47 121.55 50.49 121.63 50.49 121.71H54.88C54.88 121.63 54.9 121.55 54.9 121.47V119.49H54.91Z" fill="#333333"/>
<path d="M50.47 94.95H52.69H54.91V93.7C54.91 93.35 54.82 93.03 54.68 92.73H50.7C50.56 93.02 50.47 93.35 50.47 93.7V94.95Z" fill="#333333"/>
<path d="M52.69 107.33H50.47V109.55H52.69V107.33Z" fill="#333333"/>
<path d="M52.69 105.11H50.47V107.33H52.69V105.11Z" fill="#333333"/>
<path d="M54.91 105.11H52.69V107.33H54.91V105.11Z" fill="#333333"/>
<path d="M54.91 107.33H52.69V109.55H54.91V107.33Z" fill="#333333"/>
<path d="M70.84 109.55H68.62V119.49H70.84V109.55Z" fill="#333333"/>
<path d="M70.84 94.95H68.62V105.11H70.84V94.95Z" fill="#333333"/>
<path d="M68.62 94.95H66.4V105.11H68.62V94.95Z" fill="#333333"/>
<path d="M68.62 109.55H66.4V119.49H68.62V109.55Z" fill="#333333"/>
<path d="M68.62 91.48C67.74 91.48 66.99 91.99 66.63 92.73H70.61C70.25 91.99 69.5 91.48 68.62 91.48Z" fill="#333333"/>
<path d="M68.62 123.68C69.76 123.68 70.69 122.81 70.81 121.7H66.42C66.54 122.81 67.47 123.68 68.61 123.68H68.62Z" fill="#333333"/>
<path d="M70.84 119.49H68.62H66.4V121.47C66.4 121.55 66.42 121.63 66.42 121.71H70.81C70.81 121.63 70.83 121.55 70.83 121.47V119.49H70.84Z" fill="#333333"/>
<path d="M66.4 94.95H68.62H70.84V93.7C70.84 93.35 70.75 93.03 70.61 92.73H66.63C66.49 93.02 66.4 93.35 66.4 93.7V94.95Z" fill="#333333"/>
<path d="M68.62 105.11H66.4V107.33H68.62V105.11Z" fill="#333333"/>
<path d="M68.62 107.33H66.4V109.55H68.62V107.33Z" fill="#333333"/>
<path d="M70.84 105.11H68.62V107.33H70.84V105.11Z" fill="#333333"/>
<path d="M70.84 107.33H68.62V109.55H70.84V107.33Z" fill="#333333"/>
<path d="M86.78 94.95H84.56V105.11H86.78V94.95Z" fill="#333333"/>
<path d="M84.56 109.55H82.34V119.49H84.56V109.55Z" fill="#333333"/>
<path d="M84.56 94.95H82.34V105.11H84.56V94.95Z" fill="#333333"/>
<path d="M86.78 109.55H84.56V119.49H86.78V109.55Z" fill="#333333"/>
<path d="M84.56 123.68C85.7 123.68 86.63 122.81 86.75 121.7H82.36C82.48 122.81 83.41 123.68 84.55 123.68H84.56Z" fill="#333333"/>
<path d="M84.56 91.48C83.68 91.48 82.93 91.99 82.57 92.73H86.55C86.19 91.99 85.44 91.48 84.56 91.48Z" fill="#333333"/>
<path d="M86.78 119.49H84.56H82.34V121.47C82.34 121.55 82.36 121.63 82.36 121.71H86.75C86.75 121.63 86.77 121.55 86.77 121.47V119.49H86.78Z" fill="#333333"/>
<path d="M82.34 94.95H84.56H86.78V93.7C86.78 93.35 86.69 93.03 86.55 92.73H82.57C82.43 93.02 82.34 93.35 82.34 93.7V94.95Z" fill="#333333"/>
<path d="M86.78 107.33H84.56V109.55H86.78V107.33Z" fill="#333333"/>
<path d="M84.56 107.33H82.34V109.55H84.56V107.33Z" fill="#333333"/>
<path d="M86.78 105.11H84.56V107.33H86.78V105.11Z" fill="#333333"/>
<path d="M84.56 105.11H82.34V107.33H84.56V105.11Z" fill="#333333"/>
<path d="M100.49 109.55H98.27V119.49H100.49V109.55Z" fill="#333333"/>
<path d="M102.71 109.55H100.49V119.49H102.71V109.55Z" fill="#333333"/>
<path d="M102.71 94.95H100.49V105.11H102.71V94.95Z" fill="#333333"/>
<path d="M100.49 94.95H98.27V105.11H100.49V94.95Z" fill="#333333"/>
<path d="M100.49 123.68C101.63 123.68 102.56 122.81 102.68 121.7H98.29C98.41 122.81 99.34 123.68 100.48 123.68H100.49Z" fill="#333333"/>
<path d="M100.49 91.48C99.61 91.48 98.86 91.99 98.5 92.73H102.48C102.12 91.99 101.37 91.48 100.49 91.48Z" fill="#333333"/>
<path d="M102.71 119.49H100.49H98.27V121.47C98.27 121.55 98.29 121.63 98.29 121.71H102.68C102.68 121.63 102.7 121.55 102.7 121.47V119.49H102.71Z" fill="#333333"/>
<path d="M98.27 94.95H100.49H102.71V93.7C102.71 93.35 102.62 93.03 102.48 92.73H98.5C98.36 93.02 98.27 93.35 98.27 93.7V94.95Z" fill="#333333"/>
<path d="M100.49 107.33H98.27V109.55H100.49V107.33Z" fill="#333333"/>
<path d="M102.71 105.11H100.49V107.33H102.71V105.11Z" fill="#333333"/>
<path d="M102.71 107.33H100.49V109.55H102.71V107.33Z" fill="#333333"/>
<path d="M100.49 105.11H98.27V107.33H100.49V105.11Z" fill="#333333"/>
<path d="M116.43 94.95H114.21V105.11H116.43V94.95Z" fill="#333333"/>
<path d="M116.43 109.55V119.49H117.26C117.73 119.49 118.19 119.46 118.65 119.4V109.54H116.43V109.55Z" fill="#333333"/>
<path d="M116.43 109.55H114.21V119.49H116.43V109.55Z" fill="#333333"/>
<path d="M118.65 105.11V95.04C118.19 94.99 117.73 94.96 117.26 94.96H116.43V105.12H118.65V105.11Z" fill="#333333"/>
<path d="M118.45 92.79C118.1 92.02 117.33 91.48 116.43 91.48C115.53 91.48 114.8 91.99 114.44 92.73H117.26C117.66 92.73 118.06 92.76 118.45 92.79Z" fill="#333333"/>
<path d="M114.23 121.71C114.35 122.82 115.28 123.69 116.42 123.69C117.56 123.69 118.53 122.79 118.62 121.64C118.17 121.68 117.71 121.71 117.25 121.71H114.22H114.23Z" fill="#333333"/>
<path d="M118.65 119.4C118.19 119.45 117.73 119.49 117.26 119.49H116.43H114.21V121.47C114.21 121.55 114.23 121.63 114.23 121.71H117.26C117.72 121.71 118.18 121.68 118.63 121.64C118.63 121.58 118.65 121.53 118.65 121.47V119.41V119.4Z" fill="#333333"/>
<path d="M114.21 94.95H116.43H117.26C117.73 94.95 118.19 94.98 118.65 95.03V93.69C118.65 93.37 118.58 93.06 118.45 92.78C118.06 92.75 117.66 92.72 117.26 92.72H114.44C114.3 93.01 114.21 93.34 114.21 93.69V94.94V94.95Z" fill="#333333"/>
<path d="M118.65 107.33H116.43V109.55H118.65V107.33Z" fill="#333333"/>
<path d="M116.43 107.33H114.21V109.55H116.43V107.33Z" fill="#333333"/>
<path d="M118.65 105.11H116.43V107.33H118.65V105.11Z" fill="#333333"/>
<path d="M116.43 105.11H114.21V107.33H116.43V105.11Z" fill="#333333"/>
</svg>
