<svg width="166" height="167" viewBox="0 0 166 167" fill="none" xmlns="http://www.w3.org/2000/svg">
<path d="M121.89 0.590027H44.06C19.7484 0.590027 0.0400085 20.2984 0.0400085 44.61V122.44C0.0400085 146.752 19.7484 166.46 44.06 166.46H121.89C146.202 166.46 165.91 146.752 165.91 122.44V44.61C165.91 20.2984 146.202 0.590027 121.89 0.590027Z" fill="#548AA2"/>
<path d="M50.35 88.47C55.4973 88.47 59.67 84.2973 59.67 79.15C59.67 74.0027 55.4973 69.83 50.35 69.83C45.2027 69.83 41.03 74.0027 41.03 79.15C41.03 84.2973 45.2027 88.47 50.35 88.47Z" fill="#333333"/>
<path d="M115.59 88.47C120.737 88.47 124.91 84.2973 124.91 79.15C124.91 74.0027 120.737 69.83 115.59 69.83C110.443 69.83 106.27 74.0027 106.27 79.15C106.27 84.2973 110.443 88.47 115.59 88.47Z" fill="#333333"/>
<path d="M135.55 111.98H30.4C29.17 111.98 28.18 110.99 28.18 109.76C28.18 108.53 29.17 107.54 30.4 107.54H135.55C136.78 107.54 137.77 108.53 137.77 109.76C137.77 110.99 136.78 111.98 135.55 111.98Z" fill="#333333"/>
</svg>
