<svg width="167" height="167" viewBox="0 0 167 167" fill="none" xmlns="http://www.w3.org/2000/svg">
<path d="M122.92 0.350006H44.09C20.0546 0.350006 0.570007 19.8346 0.570007 43.87V122.7C0.570007 146.735 20.0546 166.22 44.09 166.22H122.92C146.955 166.22 166.44 146.735 166.44 122.7V43.87C166.44 19.8346 146.955 0.350006 122.92 0.350006Z" fill="#EFCFC5"/>
<path d="M34.7871 95.7739C35.6995 90.1534 31.8828 84.8575 26.2623 83.9452C20.6418 83.0328 15.3459 86.8495 14.4335 92.47C13.5212 98.0905 17.3379 103.386 22.9584 104.299C28.5789 105.211 33.8748 101.394 34.7871 95.7739Z" fill="#F38DB3"/>
<path d="M149.702 101.381C153.728 97.3545 153.728 90.8266 149.702 86.8002C145.675 82.7739 139.147 82.7739 135.121 86.8002C131.095 90.8266 131.095 97.3545 135.121 101.381C139.147 105.407 145.675 105.407 149.702 101.381Z" fill="#F38DB3"/>
<path d="M104.18 96.87C109.71 96.87 113.29 102.69 110.83 107.64C106.19 116.98 95.7 123.49 83.5 123.49C71.3 123.49 60.81 116.98 56.17 107.64C53.71 102.69 57.29 96.87 62.82 96.87H104.18Z" fill="#333333"/>
<path d="M41.02 74.72C40.14 73.99 39.29 73.22 38.49 72.4C35.03 68.89 30.89 63.12 32.57 57.92C33.87 53.9 38.6 52.71 42.38 52.96C44.45 53.1 46.46 53.7 48.33 54.6C48.99 54.92 49.83 55.3 50.57 55.78C51.27 56.23 52.2 55.75 52.24 54.91C52.41 51.44 53.64 47.82 56.76 46.13C60.16 44.29 63.89 45.51 66.39 48.23C70.41 52.6 70 58.61 68.34 63.91C67.17 67.63 65.68 71.24 63.9 74.7C62.92 76.59 62.08 78.68 60.66 80.29C58.17 83.12 54.53 82.41 51.46 81.03C47.79 79.38 44.18 77.3 41.03 74.7L41.02 74.72Z" fill="#ED1C24"/>
<path d="M125.98 74.72C126.86 73.99 127.71 73.22 128.51 72.4C131.97 68.89 136.11 63.12 134.43 57.92C133.13 53.9 128.4 52.71 124.62 52.96C122.55 53.1 120.54 53.7 118.67 54.6C118.01 54.92 117.17 55.3 116.43 55.78C115.73 56.23 114.8 55.75 114.76 54.91C114.59 51.44 113.36 47.82 110.24 46.13C106.84 44.29 103.11 45.51 100.61 48.23C96.59 52.6 97 58.61 98.66 63.91C99.83 67.63 101.32 71.24 103.1 74.7C104.08 76.59 104.92 78.68 106.34 80.29C108.83 83.12 112.47 82.41 115.54 81.03C119.21 79.38 122.82 77.3 125.97 74.7L125.98 74.72Z" fill="#ED1C24"/>
</svg>
