<svg width="166" height="167" viewBox="0 0 166 167" fill="none" xmlns="http://www.w3.org/2000/svg">
<path d="M121.89 0.77002H44.06C19.7484 0.77002 0.0400085 20.4784 0.0400085 44.79V122.62C0.0400085 146.932 19.7484 166.64 44.06 166.64H121.89C146.202 166.64 165.91 146.932 165.91 122.62V44.79C165.91 20.4784 146.202 0.77002 121.89 0.77002Z" fill="#939598"/>
<path d="M23.47 96.86C17.9 111.6 12.92 126.57 8.31001 141.63C8.06001 142.45 7.82001 143.33 8.10001 144.14C8.54001 145.43 10.03 145.96 11.34 146.32C19.32 148.48 27.44 150.14 35.64 151.25C41.71 152.07 45.06 150.3 46.12 144.23C47.64 135.5 47.09 125.91 47.74 117.05C48.56 105.81 49.57 94.58 50.76 83.37C51.71 74.4 55.29 62.81 52.27 54.01C51.48 51.72 49.44 49.67 47.02 49.67C44.6 49.67 42.61 51.65 41.49 53.79C34.4 67.4 28.92 82.51 23.49 96.86H23.47Z" fill="white"/>
<path d="M53.72 52.66C55.6 52.39 57.29 51.41 58.92 50.44C61.05 49.18 63.27 47.83 64.57 45.72C65.17 44.75 65.51 43.41 64.79 42.52C64.31 41.92 63.49 41.7201 62.73 41.6501C57.51 41.1501 52.38 44.88 47.27 43.69C45.07 43.18 33.56 37.42 36.92 44.13C39.27 48.82 48.81 53.35 53.71 52.6501L53.72 52.66Z" fill="#333333"/>
<path d="M142.22 95.62C147.87 110.33 152.94 125.27 157.63 140.31C157.88 141.13 158.13 142.01 157.86 142.82C157.43 144.11 155.94 144.65 154.63 145.01C146.66 147.22 138.55 148.92 130.36 150.07C124.3 150.93 120.93 149.17 119.84 143.11C118.27 134.39 118.77 124.79 118.07 115.94C117.19 104.7 116.12 93.48 114.87 82.28C113.87 73.31 110.23 61.75 113.2 52.92C113.98 50.62 116.01 48.57 118.43 48.56C120.85 48.55 122.85 50.51 123.98 52.65C131.14 66.22 136.71 81.3 142.21 95.62H142.22Z" fill="white"/>
<path d="M110.8 52.66C108.92 52.39 107.23 51.41 105.6 50.44C103.47 49.18 101.25 47.83 99.95 45.72C99.35 44.75 99.01 43.41 99.73 42.52C100.21 41.92 101.03 41.7201 101.79 41.6501C107.01 41.1501 112.14 44.88 117.25 43.69C119.45 43.18 130.96 37.42 127.6 44.13C125.25 48.82 115.71 53.35 110.81 52.6501L110.8 52.66Z" fill="#333333"/>
<path d="M56.45 119.15C55.96 108.93 65.11 101.51 72.57 96.1C75.94 93.65 79.45 90.45 83.77 89.83C88.64 89.13 92.62 92.67 95.64 96.04C98.75 99.51 101.61 103.22 104.14 107.14C106.8 111.25 109.14 116.51 106.91 120.87C105.19 124.25 101.15 125.89 97.36 125.97C93.57 126.05 89.88 124.88 86.2 123.99C83.39 123.31 80.37 122.94 77.44 123.3C75.95 123.49 74.49 123.86 73.11 124.44C71.69 125.03 70.44 125.92 68.99 126.45C66.49 127.37 63.54 127.42 61.05 126.36C58.51 125.28 56.89 122.99 56.56 120.26C56.51 119.89 56.48 119.51 56.47 119.15H56.45Z" fill="#333333"/>
</svg>
