<svg width="167" height="166" viewBox="0 0 167 166" fill="none" xmlns="http://www.w3.org/2000/svg">
<path d="M123.35 165.87H44.44C20.41 165.87 0.919983 146.39 0.919983 122.35V43.52C0.919983 19.49 20.4 0 44.44 0H123.3C147.32 0 166.8 19.47 166.82 43.49L166.87 122.32C166.88 146.36 147.4 165.86 123.35 165.86V165.87Z" fill="#EFCFC5"/>
<path d="M27.98 115.93C27.51 115.93 27.04 115.82 26.59 115.6C25.06 114.83 24.43 112.97 25.2 111.43L32.3 97.23C33.07 95.7 34.93 95.07 36.47 95.84C38 96.61 38.63 98.47 37.86 100.01L30.76 114.21C30.22 115.3 29.12 115.93 27.98 115.93Z" fill="#F6A6C1"/>
<path d="M39.52 115.93C39.05 115.93 38.58 115.82 38.13 115.6C36.6 114.83 35.97 112.97 36.74 111.43L43.84 97.23C44.61 95.7 46.47 95.07 48.01 95.84C49.54 96.61 50.17 98.47 49.4 100.01L42.3 114.21C41.76 115.3 40.66 115.93 39.52 115.93Z" fill="#F6A6C1"/>
<path d="M51.06 115.93C50.59 115.93 50.12 115.82 49.67 115.6C48.14 114.83 47.5101 112.97 48.2801 111.43L55.38 97.23C56.15 95.7 58.01 95.07 59.55 95.84C61.08 96.61 61.71 98.47 60.94 100.01L53.8401 114.21C53.3001 115.3 52.2 115.93 51.06 115.93Z" fill="#F6A6C1"/>
<path d="M109.62 115.93C109.15 115.93 108.68 115.82 108.23 115.6C106.7 114.83 106.07 112.97 106.84 111.43L113.94 97.23C114.71 95.7 116.57 95.07 118.11 95.84C119.64 96.61 120.27 98.47 119.5 100.01L112.4 114.21C111.86 115.3 110.76 115.93 109.62 115.93Z" fill="#F6A6C1"/>
<path d="M121.16 115.93C120.69 115.93 120.22 115.82 119.77 115.6C118.24 114.83 117.61 112.97 118.38 111.43L125.48 97.23C126.25 95.7 128.11 95.07 129.65 95.84C131.18 96.61 131.81 98.47 131.04 100.01L123.94 114.21C123.4 115.3 122.3 115.93 121.16 115.93Z" fill="#F6A6C1"/>
<path d="M132.7 115.93C132.23 115.93 131.76 115.82 131.31 115.6C129.78 114.83 129.15 112.97 129.92 111.43L137.02 97.23C137.79 95.7 139.65 95.07 141.19 95.84C142.72 96.61 143.35 98.47 142.58 100.01L135.48 114.21C134.94 115.3 133.84 115.93 132.7 115.93Z" fill="#F6A6C1"/>
<path d="M72.98 74.12C74.79 77.2 75.67 81.63 72.98 83.97C70.77 85.89 67.44 85.32 64.54 84.98C57.21 84.15 49.63 85.66 43.18 89.24C42.76 89.47 42.34 89.72 41.87 89.8C40.91 89.97 39.91 89.41 39.43 88.56C38.54 87.01 39.35 84.93 40.76 83.82C42.17 82.71 44 82.34 45.75 82C53.15 80.57 60.8401 79.14 68.1501 80.96C68.5001 81.05 68.87 81.14 69.22 81.05C70.39 80.73 70.08 78.96 69.39 77.96C66.95 74.48 63 72.34 58.9601 71.02C55.6501 69.94 46.35 69.73 44.3 66.81C41.6 62.96 49.46 60.87 52.18 61.02C59.84 61.45 69.19 67.65 72.99 74.11L72.98 74.12Z" fill="#333333"/>
<path d="M97.58 74.12C95.77 77.2 94.89 81.63 97.58 83.97C99.79 85.89 103.12 85.32 106.02 84.98C113.35 84.15 120.93 85.66 127.38 89.24C127.8 89.47 128.22 89.72 128.69 89.8C129.65 89.97 130.65 89.41 131.13 88.56C132.02 87.01 131.21 84.93 129.8 83.82C128.39 82.71 126.56 82.34 124.81 82C117.41 80.57 109.72 79.14 102.41 80.96C102.06 81.05 101.69 81.14 101.34 81.05C100.17 80.73 100.48 78.96 101.17 77.96C103.61 74.48 107.56 72.34 111.6 71.02C114.91 69.94 124.21 69.73 126.26 66.81C128.96 62.96 121.1 60.87 118.38 61.02C110.72 61.45 101.37 67.65 97.57 74.11L97.58 74.12Z" fill="#333333"/>
</svg>
