<svg width="167" height="166" viewBox="0 0 167 166" fill="none" xmlns="http://www.w3.org/2000/svg">
<path d="M123.09 0H44.26C20.2246 0 0.73999 19.4846 0.73999 43.52V122.35C0.73999 146.385 20.2246 165.87 44.26 165.87H123.09C147.125 165.87 166.61 146.385 166.61 122.35V43.52C166.61 19.4846 147.125 0 123.09 0Z" fill="#87B14C"/>
<path d="M66.12 79.08C65.14 79.08 64.16 78.71 63.42 77.96L43.15 57.69C41.66 56.2 41.66 53.77 43.15 52.28C44.64 50.79 47.07 50.79 48.56 52.28L68.83 72.55C70.32 74.04 70.32 76.47 68.83 77.96C68.08 78.71 67.1 79.08 66.13 79.08H66.12Z" fill="#333333"/>
<path d="M45.85 79.08C44.87 79.08 43.89 78.71 43.15 77.96C41.66 76.47 41.66 74.04 43.15 72.55L63.42 52.28C64.92 50.79 67.34 50.79 68.83 52.28C70.32 53.77 70.32 56.2 68.83 57.69L48.56 77.96C47.81 78.71 46.83 79.08 45.86 79.08H45.85Z" fill="#333333"/>
<path d="M119.67 79.08C118.69 79.08 117.71 78.71 116.97 77.96L96.7 57.69C95.21 56.2 95.21 53.77 96.7 52.28C98.19 50.79 100.62 50.79 102.11 52.28L122.38 72.55C123.87 74.04 123.87 76.47 122.38 77.96C121.63 78.71 120.65 79.08 119.68 79.08H119.67Z" fill="#333333"/>
<path d="M99.4 79.08C98.42 79.08 97.44 78.71 96.7 77.96C95.21 76.47 95.21 74.04 96.7 72.55L116.97 52.28C118.46 50.79 120.89 50.79 122.38 52.28C123.87 53.77 123.87 56.2 122.38 57.69L102.11 77.96C101.36 78.71 100.38 79.08 99.41 79.08H99.4Z" fill="#333333"/>
<path d="M117.18 114.51C113.9 114.51 110.14 112.99 105.94 109.95C102.35 107.35 99.44 106.37 98.17 107.34C97.76 107.65 97.3 108.31 96.82 109C96.13 109.98 95.36 111.1 94.2 112.08C89.92 115.7 84.02 114.71 79.93 112.58C78.36 111.76 76.96 110.8 75.6 109.87C74.06 108.82 72.61 107.82 71.12 107.19C67.53 105.68 63.05 106.27 59.98 108.67C59.56 108.99 59.13 109.38 58.68 109.79C57.38 110.95 55.91 112.26 53.88 113.06C47.88 115.44 42.84 111.8 38.78 108.88C36.51 107.24 34.37 105.7 32.3 105.15C29.21 104.34 25.37 106.45 24.4 109.49C23.76 111.5 21.61 112.62 19.6 111.98C17.59 111.34 16.47 109.19 17.11 107.18C19.33 100.21 27.17 95.9 34.25 97.76C37.69 98.67 40.64 100.8 43.25 102.68C47.13 105.47 49.16 106.71 51.05 105.96C51.82 105.65 52.68 104.89 53.58 104.08C54.11 103.61 54.65 103.13 55.26 102.65C60.53 98.53 67.92 97.55 74.08 100.15C76.28 101.08 78.13 102.34 79.91 103.57C81.13 104.41 82.28 105.2 83.45 105.81C85.39 106.82 88 107.3 89.24 106.25C89.64 105.91 90.07 105.29 90.53 104.64C91.26 103.6 92.16 102.3 93.53 101.26C96.52 98.99 101.88 97.58 110.41 103.77C114.11 106.45 116.98 107.45 118.29 106.52C118.69 106.24 119.15 105.65 119.64 105.03C120 104.58 120.36 104.13 120.74 103.7C124.17 99.87 129.77 98.26 135.37 99.5C140.96 100.74 145.37 104.56 146.87 109.48C147.49 111.5 146.35 113.64 144.33 114.25C142.32 114.86 140.17 113.73 139.56 111.71C138.73 108.98 136 107.48 133.73 106.97C131.46 106.47 128.35 106.68 126.45 108.81C126.17 109.12 125.92 109.44 125.66 109.77C124.93 110.7 124.02 111.85 122.71 112.77C121.05 113.94 119.2 114.52 117.17 114.52L117.18 114.51Z" fill="#333333"/>
</svg>
