<svg width="167" height="167" viewBox="0 0 167 167" fill="none" xmlns="http://www.w3.org/2000/svg">
<path d="M122.88 0.179993H44.05C20.0146 0.179993 0.530029 19.6646 0.530029 43.7V122.53C0.530029 146.565 20.0146 166.05 44.05 166.05H122.88C146.915 166.05 166.4 146.565 166.4 122.53V43.7C166.4 19.6646 146.915 0.179993 122.88 0.179993Z" fill="#F47D20"/>
<path d="M107.88 119.31C109.24 119.81 110.6 118.66 110.4 117.24C108.7 105.33 97.29 96.12 83.46 96.12C69.63 96.12 58.22 105.32 56.52 117.22C56.32 118.65 57.69 119.79 59.04 119.29L72.07 114.48C79.33 111.8 87.31 111.78 94.58 114.44L107.87 119.3L107.88 119.31Z" fill="#333333"/>
<path d="M55.9 83.11C58.9652 83.11 61.45 78.9194 61.45 73.75C61.45 68.5806 58.9652 64.39 55.9 64.39C52.8348 64.39 50.35 68.5806 50.35 73.75C50.35 78.9194 52.8348 83.11 55.9 83.11Z" fill="#333333"/>
<path d="M111.41 83.11C114.475 83.11 116.96 78.9194 116.96 73.75C116.96 68.5806 114.475 64.39 111.41 64.39C108.345 64.39 105.86 68.5806 105.86 73.75C105.86 78.9194 108.345 83.11 111.41 83.11Z" fill="#333333"/>
<path d="M62.19 66.96C58.85 64.41 50.97 59.72 38.11 59.7C37.46 59.7 36.83 59.39 36.47 58.85C35.8 57.85 35.22 56.16 37.47 54.85C37.47 54.85 43.76 51.13 51.19 53.99C51.19 53.99 59.39 58.09 62.69 63.35C62.84 63.58 62.94 63.84 63 64.11L63.47 66.12C63.65 66.87 62.8 67.42 62.19 66.96Z" fill="#333333"/>
<path d="M104.73 66.96C108.07 64.41 115.95 59.72 128.81 59.7C129.46 59.7 130.09 59.39 130.45 58.85C131.12 57.85 131.7 56.16 129.45 54.85C129.45 54.85 123.16 51.13 115.73 53.99C115.73 53.99 107.53 58.09 104.23 63.35C104.08 63.58 103.98 63.84 103.92 64.11L103.45 66.12C103.27 66.87 104.12 67.42 104.73 66.96Z" fill="#333333"/>
</svg>
