<svg width="167" height="167" viewBox="0 0 167 167" fill="none" xmlns="http://www.w3.org/2000/svg">
<path d="M122.85 166.46H44.94C20.63 166.46 0.919983 146.75 0.919983 122.44V44.61C0.919983 20.3 20.63 0.590027 44.94 0.590027H122.8C147.1 0.590027 166.8 20.28 166.82 44.58L166.87 122.41C166.89 146.73 147.17 166.45 122.85 166.45V166.46Z" fill="#FDC013"/>
<path d="M60.5175 54.9382C61.3422 49.8574 57.892 45.07 52.8112 44.2453C47.7304 43.4206 42.9431 46.8708 42.1184 51.9516C41.2936 57.0324 44.7438 61.8197 49.8246 62.6444C54.9054 63.4692 59.6928 60.019 60.5175 54.9382Z" fill="#333333"/>
<path d="M125.55 55.5008C126.732 50.4911 123.63 45.4715 118.62 44.2891C113.611 43.1067 108.591 46.2093 107.409 51.219C106.226 56.2286 109.329 61.2483 114.338 62.4306C119.348 63.613 124.368 60.5104 125.55 55.5008Z" fill="#333333"/>
<path d="M83.89 135.92C101.53 135.92 115.83 121.62 115.83 103.98C115.83 86.34 101.53 72.04 83.89 72.04C66.25 72.04 51.95 86.34 51.95 103.98C51.95 121.62 66.25 135.92 83.89 135.92Z" fill="#333333"/>
</svg>
