<svg width="167" height="167" viewBox="0 0 167 167" fill="none" xmlns="http://www.w3.org/2000/svg">
<path d="M122.74 0.350006H43.91C19.8746 0.350006 0.390015 19.8346 0.390015 43.87V122.7C0.390015 146.735 19.8746 166.22 43.91 166.22H122.74C146.775 166.22 166.26 146.735 166.26 122.7V43.87C166.26 19.8346 146.775 0.350006 122.74 0.350006Z" fill="#98D6E0"/>
<path d="M110.95 121.2C114.78 121.2 117.64 117.58 116.64 113.89C112.94 100.1 99.02 89.85 82.4 89.85C65.78 89.85 51.86 100.1 48.16 113.89C47.17 117.59 50.03 121.2 53.85 121.2L75.53 118.3C79.87 117.72 84.27 117.71 88.61 118.28L110.93 121.2H110.95Z" fill="#333333"/>
<path d="M59.7598 68.0265C60.9422 63.0169 57.8396 57.9972 52.83 56.8148C47.8203 55.6325 42.8007 58.7351 41.6183 63.7447C40.4359 68.7544 43.5385 73.774 48.5482 74.9564C53.5578 76.1388 58.5775 73.0362 59.7598 68.0265Z" fill="#333333"/>
<path d="M124.994 68.0308C126.176 63.0212 123.074 58.0015 118.064 56.8192C113.054 55.6368 108.035 58.7394 106.852 63.749C105.67 68.7587 108.772 73.7783 113.782 74.9607C118.792 76.1431 123.811 73.0405 124.994 68.0308Z" fill="#333333"/>
</svg>
