<svg width="167" height="166" viewBox="0 0 167 166" fill="none" xmlns="http://www.w3.org/2000/svg">
<path d="M122.07 0H44.22C19.914 0 0.210022 19.7039 0.210022 44.01V121.86C0.210022 146.166 19.914 165.87 44.22 165.87H122.07C146.376 165.87 166.08 146.166 166.08 121.86V44.01C166.08 19.7039 146.376 0 122.07 0Z" fill="#F47D20"/>
<path d="M57.57 77.92C58 77.83 58.53 77.78 58.8 78.12C58.94 78.29 58.97 78.52 58.98 78.73C59.06 80.3 58.05 81.74 56.78 82.67C54.5 84.33 51.52 84.62 48.7 84.72C45.52 84.83 42.15 84.72 39.47 83.02C38.37 82.32 37.39 81.28 37.22 79.99C37.01 78.33 38.42 76.99 40.02 77.45C41.52 77.88 42.74 78.86 44.31 79.22C48.76 80.24 53.22 78.83 57.56 77.92H57.57Z" fill="#333333"/>
<path d="M108.73 77.92C108.3 77.83 107.77 77.78 107.5 78.12C107.36 78.29 107.33 78.52 107.32 78.73C107.24 80.3 108.25 81.74 109.52 82.67C111.8 84.33 114.78 84.62 117.6 84.72C120.78 84.83 124.15 84.72 126.83 83.02C127.93 82.32 128.91 81.28 129.08 79.99C129.29 78.33 127.88 76.99 126.28 77.45C124.78 77.88 123.56 78.86 121.99 79.22C117.54 80.24 113.08 78.83 108.74 77.92H108.73Z" fill="#333333"/>
<path d="M84.33 94.27C88.13 94.32 91.88 95.57 94.97 98.22C99.78 102.36 101.93 109.68 101.84 115.85C101.75 121.72 99.89 127.8 95.28 131.69C87.75 138.03 77.11 136.36 70.36 129.6C58.02 117.23 66.09 94 84.33 94.27Z" fill="#333333"/>
<path d="M120.66 52.79C122.13 51.12 123.9 49.49 125.86 48.41C126.62 47.99 127.53 47.72 128.4 47.91C129.28 48.1 129.38 48.95 129.5 49.71C129.79 51.52 129.99 53.34 130.25 55.16C130.37 56 130.51 56.83 130.66 57.66C130.9 58.98 131.08 61.63 133.16 60.93C133.6 60.78 133.97 60.49 134.31 60.17C134.94 59.58 135.51 58.83 136.34 58.51C137.98 57.87 139 59.55 138.26 60.93C137.93 61.55 137.43 62.07 136.94 62.56C135.98 63.51 135.03 64.46 134.06 65.41C133.23 66.23 132.47 67.21 131.38 67.7C130.43 68.13 129.46 67.68 128.98 66.79C128.63 66.13 128.52 65.35 128.42 64.61C128.3 63.67 128.17 62.72 128.04 61.78C127.76 59.67 127.47 57.56 127.19 55.45C127.1 54.81 127.09 53.92 126.65 53.42C126.21 52.92 125.48 52.78 124.87 53C124.28 53.21 123.82 53.69 123.48 54.22C122.66 55.5 122.32 57.21 120.94 58.06C120.14 58.55 119.07 58.41 118.55 57.59C117.83 56.46 118.79 55.2 119.45 54.31C119.84 53.79 120.24 53.29 120.67 52.8L120.66 52.79Z" fill="#333333"/>
<path d="M133.74 43.04C134.94 41.67 136.4 40.33 138 39.44C138.62 39.1 139.37 38.88 140.08 39.03C140.8 39.19 140.89 39.89 140.98 40.51C141.21 42 141.38 43.49 141.59 44.98C141.69 45.67 141.8 46.35 141.93 47.03C142.13 48.12 142.27 50.29 143.98 49.71C144.34 49.59 144.65 49.35 144.92 49.09C145.44 48.61 145.91 47.99 146.59 47.73C147.93 47.21 148.77 48.58 148.16 49.72C147.89 50.22 147.48 50.66 147.08 51.06C146.3 51.84 145.51 52.62 144.72 53.4C144.04 54.07 143.41 54.88 142.52 55.28C141.74 55.63 140.95 55.27 140.55 54.53C140.26 53.99 140.17 53.35 140.09 52.74C139.99 51.97 139.88 51.19 139.78 50.42C139.55 48.69 139.31 46.96 139.08 45.23C139.01 44.7 139 43.97 138.63 43.56C138.27 43.15 137.67 43.03 137.17 43.22C136.69 43.39 136.31 43.78 136.03 44.22C135.36 45.27 135.08 46.67 133.94 47.37C133.28 47.77 132.4 47.66 131.98 46.98C131.39 46.05 132.17 45.02 132.72 44.29C133.04 43.87 133.37 43.45 133.72 43.05L133.74 43.04Z" fill="#333333"/>
<path d="M146.1 33.63C147.12 32.47 148.34 31.34 149.7 30.59C150.23 30.3 150.86 30.11 151.46 30.24C152.07 30.37 152.14 30.96 152.22 31.49C152.42 32.74 152.56 34.01 152.74 35.26C152.82 35.84 152.92 36.42 153.03 36.99C153.2 37.91 153.32 39.74 154.76 39.26C155.06 39.16 155.32 38.96 155.56 38.74C156 38.33 156.39 37.81 156.97 37.59C158.1 37.15 158.81 38.31 158.3 39.27C158.07 39.7 157.73 40.06 157.39 40.4C156.73 41.06 156.07 41.72 155.4 42.37C154.82 42.94 154.3 43.62 153.54 43.96C152.88 44.26 152.21 43.95 151.88 43.33C151.64 42.87 151.56 42.33 151.49 41.82C151.4 41.17 151.31 40.51 151.23 39.86C151.03 38.4 150.83 36.94 150.64 35.47C150.58 35.03 150.57 34.41 150.26 34.06C149.96 33.72 149.45 33.62 149.03 33.77C148.62 33.92 148.3 34.25 148.07 34.61C147.5 35.5 147.27 36.68 146.31 37.27C145.76 37.61 145.01 37.51 144.65 36.94C144.15 36.15 144.81 35.28 145.27 34.67C145.54 34.31 145.82 33.96 146.12 33.63H146.1Z" fill="#333333"/>
</svg>
