<svg width="167" height="167" viewBox="0 0 167 167" fill="none" xmlns="http://www.w3.org/2000/svg">
<path d="M123.35 166.22H44.44C20.41 166.22 0.919983 146.74 0.919983 122.7V43.87C0.919983 19.84 20.4 0.350006 44.44 0.350006H123.3C147.32 0.350006 166.8 19.82 166.82 43.84L166.87 122.67C166.88 146.71 147.4 166.21 123.35 166.21V166.22Z" fill="#87B14C"/>
<path d="M117.43 120.59C114.3 120.59 110.72 119.14 106.72 116.24C103.3 113.76 100.52 112.83 99.31 113.75C98.92 114.05 98.48 114.67 98.02 115.33C97.37 116.27 96.63 117.33 95.52 118.26C91.44 121.71 85.82 120.77 81.92 118.73C80.42 117.95 79.09 117.03 77.8 116.15C76.33 115.14 74.95 114.2 73.53 113.6C70.11 112.16 65.84 112.72 62.92 115.01C62.52 115.32 62.11 115.69 61.67 116.08C60.43 117.18 59.03 118.43 57.1 119.2C51.38 121.47 46.57 118 42.71 115.22C40.55 113.66 38.5 112.19 36.54 111.67C33.59 110.89 29.93 112.9 29.01 115.81C28.4 117.73 26.35 118.79 24.43 118.18C22.51 117.57 21.45 115.52 22.06 113.6C24.17 106.96 31.66 102.84 38.4 104.62C41.68 105.48 44.49 107.52 46.98 109.31C50.67 111.97 52.61 113.15 54.42 112.43C55.16 112.14 55.97 111.41 56.84 110.64C57.34 110.19 57.86 109.73 58.44 109.27C63.46 105.34 70.51 104.41 76.38 106.88C78.48 107.77 80.24 108.97 81.94 110.14C83.1 110.94 84.2 111.69 85.32 112.27C87.17 113.24 89.66 113.69 90.84 112.69C91.22 112.37 91.63 111.78 92.07 111.15C92.76 110.16 93.62 108.92 94.93 107.93C97.78 105.77 102.89 104.42 111.03 110.32C114.55 112.87 117.29 113.83 118.54 112.94C118.92 112.67 119.36 112.11 119.83 111.52C120.17 111.09 120.51 110.66 120.87 110.26C124.14 106.61 129.48 105.08 134.82 106.26C140.15 107.44 144.35 111.08 145.78 115.77C146.37 117.7 145.28 119.73 143.35 120.32C141.42 120.91 139.39 119.82 138.8 117.89C138.01 115.29 135.41 113.85 133.24 113.37C131.07 112.89 128.11 113.1 126.3 115.12C126.04 115.41 125.8 115.72 125.55 116.03C124.85 116.91 123.98 118.02 122.74 118.89C121.16 120.01 119.4 120.56 117.46 120.56L117.43 120.59Z" fill="white"/>
<path d="M35.65 61.96C35.98 62.55 36.63 63.05 37.68 63.32C46.33 65.57 63.35 62.7 64.74 51.78C64.97 49.99 64.05 45.63 61.48 47.71C58.78 49.89 56.93 52.92 54.14 55.06C51.4 57.15 48.2 58.31 44.73 58.19C42.48 58.11 40.03 57.61 37.83 58.3C35.85 58.92 34.94 60.66 35.66 61.96H35.65Z" fill="#333333"/>
<path d="M130.23 61.96C129.9 62.55 129.25 63.05 128.2 63.32C119.55 65.57 102.53 62.7 101.14 51.78C100.91 49.99 101.83 45.63 104.4 47.71C107.1 49.89 108.95 52.92 111.74 55.06C114.48 57.15 117.68 58.31 121.15 58.19C123.4 58.11 125.85 57.61 128.05 58.3C130.03 58.92 130.94 60.66 130.22 61.96H130.23Z" fill="#333333"/>
<path d="M64.01 76.7C65 77.06 65.95 77.51 66.79 78.14C71.11 81.38 66.42 85.26 63.39 87.16C60.1 89.23 54.77 92.91 50.67 92.11C50.03 91.98 49.35 91.71 49.03 91.14C47.48 88.45 51.8 87.17 53.55 86.41C54.85 85.85 57.39 84.59 57.24 82.84C57.19 82.32 56.88 81.87 56.51 81.51C53.94 79.01 48.44 79.74 47.43 75.58C47.29 75.02 47.38 74.39 47.76 73.95C48.13 73.53 48.71 73.36 49.26 73.26C52.68 72.68 56.05 73.86 59.19 75.12C60.72 75.74 62.42 76.11 64.02 76.7H64.01Z" fill="#333333"/>
<path d="M101.88 76.7C100.89 77.06 99.94 77.51 99.1 78.14C94.78 81.38 99.47 85.26 102.5 87.16C105.79 89.23 111.12 92.91 115.22 92.11C115.86 91.98 116.54 91.71 116.86 91.14C118.41 88.45 114.09 87.17 112.34 86.41C111.04 85.85 108.5 84.59 108.65 82.84C108.7 82.32 109.01 81.87 109.38 81.51C111.95 79.01 117.45 79.74 118.46 75.58C118.6 75.02 118.51 74.39 118.13 73.95C117.76 73.53 117.18 73.36 116.63 73.26C113.21 72.68 109.84 73.86 106.7 75.12C105.17 75.74 103.47 76.11 101.87 76.7H101.88Z" fill="#333333"/>
</svg>
